<mxfile host="app.diagrams.net" modified="2024-05-02T03:14:43.475Z" agent="Mozilla/5.0 (Windows NT 10.0; Win64; x64) AppleWebKit/537.36 (KHTML, like Gecko) Chrome/124.0.0.0 Safari/537.36" version="24.3.1" etag="PQn9ZdnKzueSXNXCUzIA" type="github">
  <diagram name="第 1 页" id="FJi92Todmi6b712v6_PB">
    <mxGraphModel>
      <root>
        <mxCell id="0" />
        <mxCell id="1" parent="0" />
      </root>
    </mxGraphModel>
  </diagram>
</mxfile>
